<svg width="32" height="32" viewBox="0 0 32 32" fill="none" xmlns="http://www.w3.org/2000/svg">
<path d="M29.3594 8.64062C30.2135 9.49479 30.8646 10.4635 31.3125 11.5469C31.7604 12.6302 31.9896 13.7812 32 15C32 15.3646 31.9896 15.8021 31.9688 16.3125C31.9479 16.8229 31.9062 17.375 31.8438 17.9688C31.7812 18.5625 31.6823 19.1719 31.5469 19.7969C31.4115 20.4219 31.2396 21.0417 31.0312 21.6562C30.7188 22.5521 30.3542 23.2812 29.9375 23.8438C29.5208 24.4062 29.0885 24.849 28.6406 25.1719C28.1927 25.4948 27.7396 25.7135 27.2812 25.8281C26.8229 25.9427 26.3958 26 26 26C25.6562 26 25.3438 25.9427 25.0625 25.8281C24.7812 25.7135 24.5104 25.5573 24.25 25.3594C23.9896 25.1615 23.75 24.9479 23.5312 24.7188C23.3125 24.4896 23.0885 24.2396 22.8594 23.9688C22.6406 23.7188 22.4271 23.4792 22.2188 23.25C22.0104 23.0208 21.7865 22.8177 21.5469 22.6406C21.3073 22.4635 21.0677 22.3125 20.8281 22.1875C20.5885 22.0625 20.3073 22 19.9844 22H12.0156C11.7135 22.0104 11.4375 22.0729 11.1875 22.1875C10.9375 22.3021 10.6927 22.4479 10.4531 22.625C10.2135 22.8021 9.99479 23.0104 9.79688 23.25C9.59896 23.4896 9.38021 23.7292 9.14062 23.9688C8.92188 24.2188 8.70312 24.4635 8.48438 24.7031C8.26562 24.9427 8.02604 25.1615 7.76562 25.3594C7.50521 25.5573 7.23438 25.7083 6.95312 25.8125C6.67188 25.9167 6.35417 25.9792 6 26C5.60417 26 5.17708 25.9427 4.71875 25.8281C4.26042 25.7135 3.80729 25.5 3.35938 25.1875C2.91146 24.875 2.47917 24.4323 2.0625 23.8594C1.64583 23.2865 1.28125 22.5521 0.96875 21.6562C0.760417 21.0521 0.59375 20.4375 0.46875 19.8125C0.34375 19.1875 0.244792 18.5729 0.171875 17.9688C0.0989583 17.3646 0.0520833 16.8125 0.03125 16.3125C0.0104167 15.8125 0 15.375 0 15C0 13.7917 0.223958 12.6458 0.671875 11.5625C1.11979 10.4792 1.77604 9.50521 2.64062 8.64062C3.48438 7.78646 4.45312 7.13542 5.54688 6.6875C6.64062 6.23958 7.79167 6.01042 9 6H23C24.2083 6 25.3542 6.22396 26.4375 6.67188C27.5208 7.11979 28.4948 7.77604 29.3594 8.64062ZM29.1406 21C29.3385 20.4479 29.4948 19.875 29.6094 19.2812C29.724 18.6875 29.8073 18.1198 29.8594 17.5781C29.9115 17.0365 29.9479 16.5365 29.9688 16.0781C29.9896 15.6198 30 15.2604 30 15C30 14.0312 29.8177 13.125 29.4531 12.2812C29.0885 11.4375 28.5885 10.6979 27.9531 10.0625C27.3177 9.42708 26.5781 8.92708 25.7344 8.5625C24.8906 8.19792 23.9792 8.01042 23 8H9C8.03125 8 7.125 8.18229 6.28125 8.54688C5.4375 8.91146 4.69792 9.41146 4.0625 10.0469C3.42708 10.6823 2.92708 11.4219 2.5625 12.2656C2.19792 13.1094 2.01042 14.0208 2 15C2 15.2708 2.00521 15.6302 2.01562 16.0781C2.02604 16.526 2.0625 17.0208 2.125 17.5625C2.1875 18.1042 2.27604 18.6771 2.39062 19.2812C2.50521 19.8854 2.66146 20.4583 2.85938 21C3.11979 21.75 3.40625 22.3281 3.71875 22.7344C4.03125 23.1406 4.33333 23.4375 4.625 23.625C4.91667 23.8125 5.1875 23.9219 5.4375 23.9531C5.6875 23.9844 5.875 24 6 24C6.22917 24 6.47917 23.8646 6.75 23.5938C7.02083 23.3229 7.3125 23.0104 7.625 22.6562C7.875 22.3646 8.14062 22.0677 8.42188 21.7656C8.70312 21.4635 9.02083 21.1823 9.375 20.9219C9.72917 20.6615 10.1198 20.4479 10.5469 20.2812C10.974 20.1146 11.4479 20.0208 11.9688 20H20.0312C20.5521 20.0208 21.026 20.1146 21.4531 20.2812C21.8802 20.4479 22.2656 20.6562 22.6094 20.9062C22.9531 21.1562 23.2708 21.4375 23.5625 21.75C23.8542 22.0625 24.125 22.3646 24.375 22.6562C24.6771 23 24.9635 23.3073 25.2344 23.5781C25.5052 23.849 25.7604 23.9896 26 24C26.125 24 26.3073 23.9844 26.5469 23.9531C26.7865 23.9219 27.0573 23.8125 27.3594 23.625C27.6615 23.4375 27.9688 23.1406 28.2812 22.7344C28.5938 22.3281 28.8802 21.75 29.1406 21ZM8 14H10V16H8V18H6V16H4V14H6V12H8V14ZM26 16C26.2812 16 26.5417 16.0521 26.7812 16.1562C27.0208 16.2604 27.2292 16.401 27.4062 16.5781C27.5833 16.7552 27.7292 16.9688 27.8438 17.2188C27.9583 17.4688 28.0104 17.7292 28 18C28 18.2812 27.9479 18.5417 27.8438 18.7812C27.7396 19.0208 27.599 19.2292 27.4219 19.4062C27.2448 19.5833 27.0312 19.7292 26.7812 19.8438C26.5312 19.9583 26.2708 20.0104 26 20C25.7188 20 25.4583 19.9479 25.2188 19.8438C24.9792 19.7396 24.7708 19.599 24.5938 19.4219C24.4167 19.2448 24.2708 19.0312 24.1562 18.7812C24.0417 18.5312 23.9896 18.2708 24 18C24 17.7188 24.0521 17.4583 24.1562 17.2188C24.2604 16.9792 24.401 16.7708 24.5781 16.5938C24.7552 16.4167 24.9688 16.2708 25.2188 16.1562C25.4688 16.0417 25.7292 15.9896 26 16ZM22 12C22.2812 12 22.5417 12.0521 22.7812 12.1562C23.0208 12.2604 23.2292 12.401 23.4062 12.5781C23.5833 12.7552 23.7292 12.9688 23.8438 13.2188C23.9583 13.4688 24.0104 13.7292 24 14C24 14.2812 23.9479 14.5417 23.8438 14.7812C23.7396 15.0208 23.599 15.2292 23.4219 15.4062C23.2448 15.5833 23.0312 15.7292 22.7812 15.8438C22.5312 15.9583 22.2708 16.0104 22 16C21.7188 16 21.4583 15.9479 21.2188 15.8438C20.9792 15.7396 20.7708 15.599 20.5938 15.4219C20.4167 15.2448 20.2708 15.0312 20.1562 14.7812C20.0417 14.5312 19.9896 14.2708 20 14C20 13.7188 20.0521 13.4583 20.1562 13.2188C20.2604 12.9792 20.401 12.7708 20.5781 12.5938C20.7552 12.4167 20.9688 12.2708 21.2188 12.1562C21.4688 12.0417 21.7292 11.9896 22 12Z" fill="#E74040"/>
</svg>
