<svg width="28" height="24" viewBox="0 0 28 24" fill="none" xmlns="http://www.w3.org/2000/svg">
<path d="M6.66669 24H2.00002C1.26669 24 0.666687 23.4 0.666687 22.6667V9.33333C0.666687 8.6 1.26669 8 2.00002 8H6.66669C7.40002 8 8.00002 8.6 8.00002 9.33333V22.6667C8.00002 23.4 7.40002 24 6.66669 24ZM16.3334 0H11.6667C10.9334 0 10.3334 0.6 10.3334 1.33333V22.6667C10.3334 23.4 10.9334 24 11.6667 24H16.3334C17.0667 24 17.6667 23.4 17.6667 22.6667V1.33333C17.6667 0.6 17.0667 0 16.3334 0ZM26 10.6667H21.3334C20.6 10.6667 20 11.2667 20 12V22.6667C20 23.4 20.6 24 21.3334 24H26C26.7334 24 27.3334 23.4 27.3334 22.6667V12C27.3334 11.2667 26.7334 10.6667 26 10.6667Z" fill="#2DC071"/>
</svg>
